<svg width="214" height="214" viewBox="0 0 214 214" fill="none" xmlns="http://www.w3.org/2000/svg">
<g opacity="0.03">
<path opacity="0.6" d="M153.678 67.9487L133.067 62.4262C127.924 61.0844 123.661 57.4943 121.47 52.6585L117.197 41.4567C115.069 36.6008 110.809 33 105.661 31.7057L91.0909 27.8015C64.939 20.7941 51.175 33.5567 44.1818 59.6555L36.6226 87.867C35.7587 90.9608 175.821 128.486 176.66 125.39L178.858 117.188C185.976 91.1221 180.203 75.0562 153.678 67.9487Z" fill="url(#paint0_linear_67_555)"/>
<path fill-rule="evenodd" clip-rule="evenodd" d="M178.643 85.3611C180.182 88.5811 181.106 92.0585 181.368 95.6152C181.808 102.899 180.958 110.201 178.858 117.188L169.001 153.974C168.162 157.071 167.104 160.103 165.835 163.05C163.534 168.233 160.239 172.916 156.135 176.835C154.22 178.745 152.07 180.407 149.738 181.781C139.4 187.172 127.32 188.184 116.218 184.587L59.3061 169.338C47.8762 166.893 37.902 159.973 31.618 150.13C30.3076 147.777 29.2981 145.269 28.613 142.665C27.0347 137.228 26.5643 131.53 27.2296 125.91C27.5511 122.716 28.1309 119.552 28.9633 116.451L38.8203 79.6645C39.6423 76.5919 40.6312 73.5663 41.7827 70.6013C41.9963 70.0842 42.2426 69.5852 42.4864 69.0914C42.8927 68.2681 43.292 67.4593 43.5209 66.6047C45.1406 63.0883 47.2523 59.8196 49.7928 56.8964C57.4302 47.8204 68.8082 45.208 85.122 49.5793L153.615 67.932C162.942 69.6737 171.274 74.8546 176.955 82.4446C177.596 83.3697 178.161 84.345 178.643 85.3611ZM64.6861 122.36L135.172 141.247L135.296 141.28C136.825 141.762 138.483 141.613 139.899 140.866C141.315 140.119 142.373 138.837 142.835 137.306C143.286 135.972 143.198 134.515 142.589 133.244C141.942 131.582 140.549 130.321 138.829 129.839L67.7831 110.802C64.5849 109.945 61.299 111.838 60.4438 115.03C59.5886 118.221 61.4879 121.503 64.6861 122.36Z" fill="url(#paint1_linear_67_555)"/>
</g>
<defs>
<linearGradient id="paint0_linear_67_555" x1="125.308" y1="36.9679" x2="106.019" y2="108.954" gradientUnits="userSpaceOnUse">
<stop/>
<stop offset="1" stop-opacity="0"/>
</linearGradient>
<linearGradient id="paint1_linear_67_555" x1="119.505" y1="58.6754" x2="94.5535" y2="145.5" gradientUnits="userSpaceOnUse">
<stop/>
<stop offset="1" stop-opacity="0"/>
</linearGradient>
</defs>
</svg>
