<svg width="38" height="38" viewBox="0 0 38 38" fill="none" xmlns="http://www.w3.org/2000/svg">
<path opacity="0.6" d="M26.7336 8.09853H22.0737C20.9129 8.1062 19.8107 7.58981 19.0751 6.69357L17.5406 4.57209C16.8173 3.66799 15.7151 3.14918 14.556 3.16714H11.2617C5.34888 3.16714 3.16676 6.63737 3.16676 12.5382V18.9167C3.15941 19.6181 34.8265 19.6172 34.8286 18.9167V17.0621C34.8567 11.1613 32.7309 8.09853 26.7336 8.09853Z" fill="white"/>
<path fill-rule="evenodd" clip-rule="evenodd" d="M32.9843 10.3605C33.4909 10.9528 33.8823 11.6341 34.1387 12.3696C34.6431 13.8812 34.8767 15.4697 34.8285 17.0621V25.3795C34.8265 26.08 34.7748 26.7796 34.6737 27.4729C34.4812 28.6963 34.0508 29.8704 33.4066 30.929C33.1106 31.4404 32.7511 31.9124 32.3367 32.334C30.4607 34.0557 27.9696 34.9519 25.4243 34.8208H12.5569C10.0075 34.951 7.51239 34.0551 5.63043 32.334C5.22097 31.9116 4.86625 31.4396 4.57457 30.929C3.93427 29.8712 3.51301 28.696 3.33569 27.4729C3.22294 26.7807 3.16644 26.0807 3.16675 25.3795V17.0621C3.16648 16.3675 3.20407 15.6734 3.27938 14.9828C3.29521 14.8617 3.31896 14.7425 3.34247 14.6245C3.38166 14.4279 3.42016 14.2347 3.42016 14.0415C3.56307 13.2081 3.82377 12.3993 4.19446 11.639C5.29255 9.29275 7.54506 8.09854 11.2335 8.09854H26.7195C28.7854 7.93876 30.836 8.56069 32.4634 9.84068C32.6508 9.99962 32.825 10.1735 32.9843 10.3605ZM11.0364 24.6067H26.9729H27.0011C27.3508 24.6219 27.692 24.4968 27.9485 24.2592C28.2051 24.0216 28.3557 23.6914 28.3667 23.3423C28.3864 23.0354 28.2854 22.733 28.0851 22.4993C27.8547 22.1853 27.4896 21.9979 27.0996 21.9935H11.0364C10.3134 21.9935 9.72717 22.5785 9.72717 23.3001C9.72717 24.0218 10.3134 24.6067 11.0364 24.6067Z" fill="white"/>
</svg>
