<svg width="219" height="117" viewBox="0 0 219 117" fill="none" xmlns="http://www.w3.org/2000/svg">
<path d="M9.65543 14.9064C10.1113 11.0606 13.6031 8.31579 17.4478 8.78107L127.594 22.1113C129.547 22.3476 131.31 23.3948 132.452 24.9965L139.262 34.5467C139.615 35.0406 140.322 35.1097 140.763 34.6932L149.029 26.8897C150.537 25.4659 152.599 24.7842 154.658 25.0283L173.533 27.2657C177.488 27.7345 180.255 31.4035 179.619 35.3347L171.455 85.81C171.154 87.6766 170.109 89.3417 168.56 90.4263L140.702 109.934C139.313 110.907 137.617 111.342 135.93 111.159L7.02548 97.1291C3.15614 96.7079 0.373364 93.2113 0.831528 89.3462L9.65543 14.9064Z" fill="#232323"/>
<path d="M25.0453 75.0778L30.4503 31.7546L59.4575 35.3736L58.4357 43.5631L39.181 41.1609L38.0501 50.2256L55.1793 52.3627L54.1575 60.5522L37.0283 58.4151L34.7976 76.2945L25.0453 75.0778ZM81.3618 57.0895C80.5543 56.7771 79.6009 56.4465 78.5016 56.0978C77.4075 55.7073 76.2145 55.4315 74.9225 55.2703C74.339 55.1975 73.6227 55.1716 72.7736 55.1926C71.9713 55.1772 71.354 55.206 70.9216 55.279L67.7862 80.4102L58.4714 79.2481L62.3556 48.1154C64.0955 47.7399 66.1219 47.4425 68.4348 47.2232C70.7946 46.9674 73.3707 47.0137 76.1631 47.362C76.6632 47.4244 77.2623 47.5415 77.9604 47.7133C78.6637 47.8433 79.3619 48.0151 80.0548 48.2285C80.7529 48.4002 81.4458 48.6137 82.1335 48.8688C82.8264 49.0822 83.4099 49.3243 83.884 49.5951L81.3618 57.0895ZM84.0666 65.9979C84.4306 63.0805 85.1854 60.5928 86.331 58.5348C87.5235 56.4403 88.94 54.7547 90.5807 53.478C92.2214 52.2013 94.0263 51.3049 95.9953 50.7887C98.0061 50.2777 100.012 50.147 102.012 50.3966C106.68 50.9789 110.189 52.8769 112.539 56.0906C114.895 59.2626 115.727 63.6202 115.035 69.1632C114.967 69.705 114.871 70.3067 114.746 70.9683C114.627 71.5883 114.515 72.1457 114.411 72.6406L93.2805 70.0044C93.2497 71.9475 93.956 73.5805 95.3993 74.9034C96.8426 76.2263 98.8979 77.0541 101.565 77.3869C103.274 77.6001 104.959 77.6622 106.621 77.5732C108.33 77.4478 109.734 77.2209 110.833 76.8924L111.139 84.6127C110.608 84.8004 109.91 84.9673 109.045 85.1133C108.181 85.2594 107.217 85.3508 106.154 85.3875C105.128 85.4711 104.023 85.5026 102.841 85.4821C101.658 85.4615 100.484 85.3784 99.3166 85.2328C96.3576 84.8637 93.8282 84.1037 91.7285 82.9529C89.6705 81.8073 88.0057 80.3933 86.7342 78.7109C85.5096 76.9921 84.673 75.0466 84.2245 72.8743C83.8177 70.7073 83.765 68.4151 84.0666 65.9979ZM106.392 65.1643C106.449 64.3673 106.399 63.5781 106.243 62.7967C106.128 62.0205 105.857 61.3095 105.429 60.6636C105.044 60.0229 104.499 59.4682 103.796 58.9996C103.134 58.5361 102.261 58.2367 101.178 58.1015C100.136 57.9715 99.2165 58.0473 98.4195 58.3288C97.6277 58.5686 96.9454 58.9491 96.3724 59.4701C95.7995 59.9912 95.3178 60.6295 94.9273 61.385C94.5836 62.1039 94.2999 62.8516 94.076 63.6278L106.392 65.1643ZM119.949 70.4747C120.313 67.5573 121.068 65.0696 122.214 63.0116C123.406 60.9171 124.823 59.2315 126.464 57.9548C128.104 56.6781 129.909 55.7817 131.878 55.2655C133.889 54.7545 135.894 54.6238 137.895 54.8734C142.563 55.4557 146.072 57.3538 148.422 60.5674C150.777 63.7395 151.609 68.097 150.918 73.64C150.85 74.1818 150.754 74.7835 150.629 75.4451C150.509 76.0651 150.398 76.6225 150.294 77.1175L129.163 74.4812C129.133 76.4243 129.839 78.0573 131.282 79.3802C132.725 80.7031 134.781 81.5309 137.448 81.8637C139.157 82.0769 140.842 82.139 142.504 82.05C144.213 81.9246 145.616 81.6977 146.716 81.3692L147.022 89.0896C146.491 89.2772 145.793 89.4441 144.928 89.5902C144.063 89.7362 143.1 89.8276 142.037 89.8643C141.011 89.9479 139.906 89.9794 138.724 89.9589C137.541 89.9383 136.366 89.8552 135.199 89.7097C132.24 89.3405 129.711 88.5805 127.611 87.4297C125.553 86.2841 123.889 84.8701 122.617 83.1878C121.392 81.4689 120.556 79.5234 120.107 77.3511C119.701 75.1841 119.648 72.892 119.949 70.4747ZM142.274 69.6412C142.332 68.8441 142.282 68.0549 142.125 67.2735C142.011 66.4973 141.74 65.7863 141.312 65.1404C140.927 64.4997 140.382 63.9451 139.679 63.4764C139.017 63.0129 138.144 62.7135 137.061 62.5784C136.019 62.4484 135.099 62.5241 134.302 62.8056C133.511 63.0454 132.828 63.4259 132.255 63.947C131.682 64.468 131.201 65.1063 130.81 65.8618C130.466 66.5808 130.183 67.3284 129.959 68.1046L142.274 69.6412Z" fill="white"/>
<g filter="url(#filter0_d_9_642)">
<path d="M186.244 30.924L189.215 37.1151L179.922 41.0998L187.423 48.8592L182.543 53.3849L175.219 45.5109L169.934 54.8125L163.896 51.6174L169.472 42.3775L159.606 40.4672L161.129 33.862L170.653 36.0948L169.542 26.2874L176.361 25.5155L177.471 35.3229L186.244 30.924Z" fill="white"/>
</g>
<defs>
<filter id="filter0_d_9_642" x="130.147" y="0.225433" width="88.8023" height="87.5599" filterUnits="userSpaceOnUse" color-interpolation-filters="sRGB">
<feFlood flood-opacity="0" result="BackgroundImageFix"/>
<feColorMatrix in="SourceAlpha" type="matrix" values="0 0 0 0 0 0 0 0 0 0 0 0 0 0 0 0 0 0 127 0" result="hardAlpha"/>
<feOffset dy="4"/>
<feGaussianBlur stdDeviation="14"/>
<feComposite in2="hardAlpha" operator="out"/>
<feColorMatrix type="matrix" values="0 0 0 0 0 0 0 0 0 0 0 0 0 0 0 0 0 0 0.65 0"/>
<feBlend mode="normal" in2="BackgroundImageFix" result="effect1_dropShadow_9_642"/>
<feBlend mode="normal" in="SourceGraphic" in2="effect1_dropShadow_9_642" result="shape"/>
</filter>
</defs>
</svg>
