<svg width="188" height="188" viewBox="0 0 188 188" fill="none" xmlns="http://www.w3.org/2000/svg">
<path d="M46.741 108.528L48.6605 107.818L51.1125 114.447L34.9236 120.438L34.0977 118.205L48.367 112.925L46.741 108.528Z" fill="#838383"/>
<path d="M41.7587 100.309L41.5291 98.3869L42.5574 98.2676C43.557 98.1849 44.3879 98.4215 45.0501 98.9775C45.7122 99.5335 46.109 100.362 46.2405 101.462C46.3857 102.678 46.1476 103.663 45.5261 104.418C44.9047 105.173 43.9737 105.622 42.7332 105.766L37.9834 106.317C36.7429 106.461 35.7396 106.236 34.9736 105.642C34.2057 105.032 33.7511 104.135 33.6098 102.953C33.4764 101.836 33.7051 100.91 34.2958 100.175C34.8702 99.4425 35.8022 99.0014 37.0917 98.8517L39.8828 98.5279L40.5214 103.874L42.5536 103.639C43.2881 103.553 43.8163 103.334 44.1381 102.98C44.4579 102.61 44.5855 102.154 44.5207 101.612C44.4638 101.135 44.28 100.774 43.9691 100.527C43.6583 100.28 43.2561 100.168 42.7625 100.192L41.7587 100.309ZM35.3266 102.778C35.3894 103.304 35.618 103.694 36.0124 103.948C36.3905 104.204 36.9468 104.289 37.6813 104.204L38.979 104.053L38.5817 100.727L37.1126 100.898C36.4617 100.99 35.9907 101.203 35.6995 101.536C35.3921 101.872 35.2678 102.286 35.3266 102.778Z" fill="#838383"/>
<path d="M33.8197 88.6761C33.9602 87.577 34.3391 86.7519 34.9564 86.2006C35.5594 85.6308 36.3904 85.417 37.4493 85.5591L46.6862 86.7986L46.4409 88.7179L45.2191 88.554C46.0501 89.1827 46.3912 90.0794 46.2423 91.2441C46.1312 92.1135 45.7977 92.7779 45.2419 93.2373C44.6861 93.6966 43.9194 93.8607 42.942 93.7295L41.8912 93.5885C40.1807 93.359 39.282 92.2873 39.1952 90.3735L39.051 88.0015L37.2183 87.7556C36.2246 87.6222 35.6669 88.0313 35.5453 88.9827C35.4887 89.4256 35.575 89.7876 35.8042 90.0686C36.0171 90.3475 36.3435 90.5164 36.7833 90.5755L37.8341 90.7165L37.5793 92.7096L36.5041 92.5653C35.5267 92.4341 34.7998 92.0279 34.3235 91.3466C33.8472 90.6653 33.6793 89.7751 33.8197 88.6761ZM44.5032 90.4601C44.5724 89.9188 44.4548 89.4775 44.1504 89.1364C43.8461 88.7952 43.4088 88.5863 42.8386 88.5098L40.5661 88.2048L40.6604 89.9945C40.7037 90.4341 40.8349 90.7688 41.0541 90.9984C41.257 91.2259 41.5621 91.3669 41.9694 91.4216L42.9957 91.5593C43.4192 91.6161 43.7668 91.5543 44.0384 91.3739C44.2959 91.1748 44.4508 90.8702 44.5032 90.4601Z" fill="#838383"/>
<path d="M37.8147 73.8735C37.8947 73.6565 38.0227 73.4046 38.1986 73.1178L40.2072 73.8759C40.012 74.1201 39.8629 74.3817 39.76 74.6607C39.5485 75.2343 39.6204 75.8001 39.9758 76.358C40.3369 76.9005 41.0176 77.3605 42.0181 77.7381L48.806 80.3001L48.0515 82.3464L36.5074 77.9893L37.1162 76.3383L39.2865 77.1575C37.8537 76.1928 37.3631 75.0982 37.8147 73.8735Z" fill="#838383"/>
<path d="M43.8421 63.0262C44.3305 62.281 44.9116 61.8453 45.5852 61.7191C46.2679 61.5791 47.0068 61.7739 47.802 62.3036L55.8228 67.6465L54.6152 69.4888L46.9852 64.4062C46.2586 63.9222 45.6646 64.0321 45.2033 64.7359C44.9229 65.1637 44.8452 65.5977 44.9703 66.0379C45.0954 66.4781 45.4459 66.89 46.0217 67.2735L47.2763 68.1092L47.2627 68.1299L53.0006 71.9521L51.8066 73.7737L41.5236 66.9239L42.487 65.4542L43.7415 66.2899C43.4201 65.7586 43.2739 65.2152 43.3032 64.6597C43.3187 64.0951 43.4983 63.5506 43.8421 63.0262Z" fill="#838383"/>
<path d="M66.664 43.566C67.4046 43.1377 68.109 43.0262 68.7772 43.2315C69.4371 43.4224 70.0058 43.9333 70.4833 44.7642L75.2864 53.1231L73.3851 54.2226L68.8165 46.2719C68.6107 45.9138 68.3576 45.688 68.0573 45.5945C67.7486 45.4866 67.4448 45.5192 67.1457 45.6921C66.7469 45.9227 66.5058 46.2626 66.4223 46.7116C66.3388 47.1607 66.4616 47.6718 66.7909 48.2448L71.0137 55.5938L69.1124 56.6932L64.5438 48.7426C64.338 48.3844 64.0849 48.1586 63.7846 48.0651C63.4759 47.9573 63.1721 47.9898 62.873 48.1628C62.4742 48.3934 62.2331 48.7332 62.1496 49.1823C62.0803 49.6231 62.2103 50.1301 62.5396 50.7031L63.3175 52.0568L63.2961 52.0692L66.741 58.0644L64.861 59.1515L58.6873 48.4074L60.2041 47.5303L60.9326 48.7981C60.8971 48.2079 61.0016 47.6799 61.2462 47.214C61.4826 46.7338 61.8643 46.3413 62.3912 46.0366C63.4167 45.4436 64.3514 45.4853 65.1953 46.1615C65.149 45.0241 65.6385 44.1589 66.664 43.566Z" fill="#838383"/>
<path d="M81.2301 52.2219C80.0658 52.5115 79.0824 52.4067 78.2798 51.9075C77.4731 51.3923 76.9192 50.533 76.618 49.3297L75.4132 44.5164C75.112 43.3131 75.1981 42.3032 75.6714 41.4867C76.1406 40.6542 76.9574 40.0932 78.1217 39.8036C79.286 39.5141 80.2714 39.6269 81.078 40.1421C81.8806 40.6412 82.4326 41.4925 82.7338 42.6958L83.9386 47.5091C84.2398 48.7124 84.1557 49.7304 83.6864 50.5629C83.2131 51.3794 82.3944 51.9324 81.2301 52.2219ZM80.7964 50.4891C81.2788 50.3862 81.6055 50.1345 81.7764 49.7341C81.9432 49.3177 81.9423 48.7725 81.7736 48.0987L80.5387 43.165C80.374 42.5072 80.1219 42.0416 79.7824 41.7681C79.4389 41.4786 79.0279 41.3933 78.5494 41.5123C78.0709 41.6313 77.7483 41.899 77.5815 42.3155C77.4106 42.7159 77.4075 43.245 77.5722 43.9028L78.8071 48.8364C78.9758 49.5103 79.2299 49.984 79.5694 50.2574C79.9089 50.5309 80.3179 50.6081 80.7964 50.4891Z" fill="#838383"/>
<path d="M93.1187 38.2423C93.3487 38.2388 93.6287 38.2676 93.9586 38.3287L94.0018 40.487C93.7041 40.3923 93.4073 40.3472 93.1116 40.3517C92.5037 40.361 92.0078 40.6333 91.6241 41.1686C91.2568 41.7036 91.0839 42.5086 91.1054 43.5837L91.2514 50.8772L89.0826 50.9104L88.8343 38.5065L90.5841 38.4797L90.6308 40.8116C90.9914 39.1186 91.8207 38.2622 93.1187 38.2423Z" fill="#838383"/>
<path d="M104.352 48.3921L106.232 48.798L106.019 49.8176C105.781 50.7979 105.296 51.5135 104.564 51.9643C103.831 52.4152 102.927 52.5243 101.85 52.2919C100.661 52.0352 99.8093 51.4877 99.2956 50.6495C98.7819 49.8113 98.6534 48.7772 98.9101 47.5472L99.8928 42.8374C100.149 41.6074 100.678 40.7236 101.479 40.1861C102.296 39.652 103.283 39.5099 104.44 39.7597C105.533 39.9956 106.331 40.5147 106.836 41.3171C107.343 42.1032 107.464 43.1356 107.197 44.4142L106.619 47.1818L101.388 46.0525L100.968 48.0675C100.816 48.7959 100.856 49.371 101.087 49.793C101.334 50.2184 101.722 50.4884 102.253 50.6029C102.719 50.7035 103.117 50.6457 103.448 50.4296C103.778 50.2134 104.01 49.866 104.144 49.3874L104.352 48.3921ZM104.061 41.4539C103.547 41.3428 103.108 41.4341 102.744 41.7278C102.384 42.0052 102.128 42.5081 101.976 43.2364L101.708 44.5231L104.962 45.2256L105.266 43.769C105.385 43.1181 105.334 42.5996 105.112 42.2135C104.893 41.8111 104.543 41.5579 104.061 41.4539Z" fill="#838383"/>
<path d="M126.979 50.4112C127.86 51.0757 128.389 51.8149 128.565 52.6288C128.764 53.4394 128.543 54.2751 127.904 55.1359L122.329 62.6448L120.79 61.4844L121.527 60.4912C120.578 60.9121 119.637 60.7704 118.702 60.0663C118.004 59.5406 117.593 58.9205 117.466 58.2058C117.34 57.4911 117.572 56.7365 118.162 55.9419L118.796 55.0877C119.828 53.6972 121.193 53.4348 122.89 54.3006L125.012 55.3414L126.118 53.8516C126.717 53.0437 126.636 52.3522 125.872 51.7769C125.517 51.5092 125.162 51.4068 124.807 51.4699C124.462 51.5198 124.157 51.7236 123.891 52.0811L123.257 52.9353L121.658 51.7303L122.307 50.8562C122.897 50.0616 123.603 49.6227 124.424 49.5394C125.245 49.4561 126.097 49.7467 126.979 50.4112ZM120.228 58.9236C120.662 59.2509 121.101 59.3647 121.544 59.2651C121.988 59.1655 122.381 58.884 122.726 58.4205L124.097 56.573L122.504 55.775C122.102 55.5966 121.749 55.5472 121.444 55.6269C121.148 55.6933 120.877 55.892 120.632 56.2231L120.012 57.0574C119.757 57.4017 119.641 57.7377 119.664 58.0653C119.711 58.3895 119.899 58.6756 120.228 58.9236Z" fill="#838383"/>
<path d="M137.952 61.3932C138.543 62.1256 138.777 62.9142 138.655 63.7591C138.555 64.6065 138.027 65.4201 137.07 66.2001L132.933 69.5698C131.975 70.3498 131.067 70.7061 130.209 70.6387C129.374 70.5738 128.661 70.1752 128.071 69.4428C127.324 68.5177 127.199 67.5232 127.695 66.4593L126.623 67.3329L125.472 65.9067L138.878 54.9867L140.261 56.702L135.838 60.3056C136.667 60.3111 137.372 60.6737 137.952 61.3932ZM135.429 64.5986C136.514 63.7146 136.74 62.8808 136.108 62.097C135.787 61.6987 135.397 61.5163 134.937 61.55C134.491 61.5732 133.986 61.8136 133.425 62.2712L129.882 65.1572C129.307 65.6252 128.956 66.0816 128.828 66.5264C128.711 66.984 128.814 67.4003 129.137 67.7754C129.77 68.5592 130.628 68.509 131.713 67.625L135.429 64.5986Z" fill="#838383"/>
<path d="M133.359 78.4965C132.853 77.4013 132.767 76.4117 133.101 75.5278C133.45 74.637 134.184 73.932 135.303 73.4129L139.778 71.3367C140.897 70.8176 141.901 70.7162 142.79 71.0326C143.694 71.3421 144.399 72.0445 144.905 73.1397C145.412 74.235 145.49 75.2281 145.141 76.1189C144.807 77.0028 144.08 77.7043 142.961 78.2233L138.486 80.2996C137.367 80.8187 136.356 80.9235 135.452 80.614C134.563 80.2976 133.865 79.5918 133.359 78.4965ZM134.97 77.7491C135.163 78.2061 135.472 78.482 135.896 78.5767C136.335 78.6645 136.868 78.5631 137.495 78.2724L142.082 76.1442C142.694 75.8604 143.101 75.5259 143.303 75.1405C143.52 74.7481 143.525 74.3269 143.317 73.8768C143.108 73.4267 142.785 73.1578 142.346 73.07C141.921 72.9752 141.404 73.0698 140.792 73.3535L136.205 75.4817C135.578 75.7724 135.164 76.1104 134.961 76.4958C134.759 76.8812 134.762 77.299 134.97 77.7491Z" fill="#838383"/>
<path d="M149.681 90.7268L137.567 92.9943L137.234 91.2392L138.857 90.9353C138.213 90.8034 137.693 90.5306 137.297 90.1167C136.901 89.7029 136.643 89.179 136.522 88.5452C136.356 87.6677 136.469 86.9398 136.861 86.3615C137.256 85.7995 137.922 85.4309 138.859 85.2555L148.308 83.4868L148.72 85.6564L139.731 87.3389C138.881 87.5316 138.531 88.0262 138.682 88.8225C138.778 89.3263 139.023 89.6927 139.418 89.9217C139.815 90.167 140.354 90.2262 141.032 90.0992L149.27 88.5573L149.681 90.7268Z" fill="#838383"/>
<path d="M138.982 101.502C138.972 101.783 139.001 102.107 139.069 102.474L137.345 102.399C137.268 101.833 137.238 101.31 137.256 100.831C137.296 99.7895 137.58 99.0237 138.108 98.5333C138.637 98.043 139.434 97.8209 140.502 97.8672L148.161 98.1989L148.208 96.9593L149.932 97.034L149.885 98.2736L152.397 98.3824L152.313 100.589L149.801 100.48L149.709 102.91L147.985 102.835L148.077 100.406L140.59 100.081C140.032 100.057 139.625 100.164 139.369 100.401C139.13 100.639 139.001 101.006 138.982 101.502Z" fill="#838383"/>
<path d="M139.899 122.694L140.745 123.1C141.161 123.299 141.518 123.332 141.816 123.2C142.129 123.076 142.38 122.811 142.57 122.408C142.759 122.004 142.799 121.648 142.69 121.339C142.573 121.045 142.329 120.809 141.958 120.632L141.579 120.45C141.149 120.244 140.741 120.223 140.355 120.386C139.977 120.571 139.474 120.907 138.846 121.394C138.326 121.804 137.867 122.124 137.468 122.354C137.084 122.591 136.635 122.734 136.122 122.781C135.602 122.843 135.045 122.732 134.451 122.448L134.006 122.234C133.07 121.787 132.491 121.161 132.268 120.359C132.045 119.556 132.179 118.631 132.67 117.585C133.168 116.523 133.796 115.844 134.553 115.548C135.311 115.251 136.127 115.313 137.003 115.732L137.983 116.201L137.097 118.03L136.14 117.571C135.739 117.379 135.371 117.35 135.036 117.482C134.701 117.615 134.436 117.89 134.239 118.309C134.057 118.698 134.013 119.061 134.109 119.4C134.204 119.739 134.445 120 134.831 120.185L135.299 120.409C135.744 120.622 136.174 120.636 136.589 120.45C136.996 120.279 137.492 119.958 138.077 119.487C138.597 119.077 139.056 118.757 139.455 118.527C139.854 118.297 140.31 118.158 140.823 118.111C141.351 118.071 141.919 118.196 142.528 118.488L142.884 118.658C143.76 119.078 144.302 119.685 144.511 120.481C144.719 121.276 144.588 122.175 144.118 123.177C143.648 124.178 143.049 124.816 142.32 125.09C141.585 125.378 140.786 125.317 139.925 124.904L139.057 124.488L139.899 122.694Z" fill="#838383"/>
<path d="M129.107 130.684L127.899 132.189L127.094 131.533C126.335 130.873 125.921 130.111 125.853 129.247C125.785 128.384 126.097 127.522 126.789 126.66C127.552 125.709 128.421 125.193 129.394 125.113C130.367 125.034 131.339 125.389 132.311 126.18L136.031 129.209C137.002 130 137.545 130.877 137.658 131.842C137.762 132.819 137.442 133.77 136.699 134.696C135.997 135.571 135.177 136.052 134.24 136.139C133.316 136.237 132.349 135.875 131.339 135.053L129.153 133.274L132.513 129.088L130.921 127.792C130.346 127.324 129.82 127.097 129.342 127.113C128.855 127.141 128.441 127.367 128.1 127.792C127.801 128.164 127.672 128.549 127.714 128.944C127.755 129.34 127.958 129.706 128.321 130.044L129.107 130.684ZM135.372 133.584C135.702 133.173 135.82 132.737 135.724 132.276C135.642 131.826 135.313 131.367 134.737 130.899L133.721 130.071L131.631 132.675L132.781 133.612C133.303 134.015 133.784 134.206 134.226 134.182C134.68 134.169 135.062 133.97 135.372 133.584Z" fill="#838383"/>
<path d="M125.733 145.001C125.552 145.144 125.312 145.291 125.013 145.442L123.689 143.743C123.982 143.637 124.246 143.493 124.479 143.31C124.958 142.933 125.19 142.415 125.176 141.754C125.149 141.103 124.806 140.354 124.146 139.508L119.672 133.764L121.381 132.421L128.99 142.188L127.611 143.272L126.181 141.436C126.905 143.009 126.756 144.197 125.733 145.001Z" fill="#838383"/>
<path d="M112.751 151.914L109.663 139.644L112.108 138.468L119.732 148.556L117.709 149.53L111.946 141.27L114.774 150.941L112.751 151.914Z" fill="#838383"/>
<path d="M101.671 142.148L103.796 141.603L106.893 153.614L104.768 154.159L101.671 142.148ZM105.406 156.633L107.555 156.082L108.144 158.364L105.995 158.916L105.406 156.633Z" fill="#838383"/>
<path d="M92.123 152.459C92.1701 152.987 92.3325 153.375 92.6103 153.626C92.8891 153.892 93.2418 154.014 93.6685 153.991C94.7022 153.936 95.1784 153.206 95.097 151.802L94.8057 146.774C94.7645 146.063 94.6022 145.534 94.3186 145.185C94.0196 144.853 93.6244 144.708 93.1331 144.751C92.6901 144.775 92.3532 144.926 92.1223 145.203C91.8761 145.498 91.7605 145.918 91.7757 146.464L91.8345 147.48L89.7917 147.59L89.7329 146.574C89.6707 145.501 89.9418 144.641 90.5464 143.996C91.1354 143.368 91.9632 143.025 93.0298 142.968C94.2112 142.904 95.1578 143.193 95.8698 143.834C96.5818 144.475 96.9746 145.431 97.0483 146.703L97.3325 151.608C97.4061 152.879 97.1262 153.872 96.4927 154.585C95.8592 155.298 94.9518 155.686 93.7704 155.75C92.7038 155.807 91.8411 155.547 91.1822 154.97C90.5078 154.409 90.1405 153.609 90.0802 152.569L90.0199 151.528L92.0628 151.419L92.123 152.459Z" fill="#838383"/>
<path d="M80.3627 145.989L78.472 145.636L78.6564 144.611C78.8674 143.624 79.3326 142.895 80.052 142.424C80.7715 141.953 81.6726 141.819 82.7553 142.021C83.9511 142.245 84.8174 142.768 85.354 143.592C85.8907 144.415 86.0477 145.445 85.8252 146.682L84.9731 151.418C84.7506 152.655 84.2466 153.553 83.4611 154.113C82.6594 154.669 81.6768 154.839 80.5133 154.621C79.4144 154.416 78.6018 153.919 78.0755 153.131C77.5462 152.36 77.3972 151.331 77.6285 150.045L78.1292 147.263L83.3892 148.246L83.7538 146.219C83.8855 145.487 83.8301 144.913 83.5875 144.498C83.3287 144.079 82.9327 143.82 82.3994 143.721C81.9308 143.633 81.5342 143.702 81.2097 143.927C80.8852 144.153 80.6629 144.506 80.5427 144.989L80.3627 145.989ZM80.845 152.917C81.3621 153.014 81.7983 152.91 82.1536 152.607C82.5059 152.319 82.748 151.809 82.8797 151.077L83.1125 149.783L79.8402 149.172L79.5767 150.637C79.4757 151.291 79.5414 151.807 79.7737 152.187C80.0031 152.583 80.3602 152.827 80.845 152.917Z" fill="#838383"/>
</svg>
