<svg width="123" height="28" viewBox="0 0 123 28" fill="none" xmlns="http://www.w3.org/2000/svg">
<path d="M36.926 17.544C37.0287 17.5533 37.164 17.5627 37.332 17.572C37.5 17.572 37.7287 17.572 38.018 17.572C39.2033 17.572 40.0853 17.2733 40.664 16.676C41.252 16.0693 41.546 15.2247 41.546 14.142C41.546 13.0407 41.2613 12.196 40.692 11.608C40.1227 11.02 39.2407 10.726 38.046 10.726C37.5233 10.726 37.15 10.74 36.926 10.768V17.544ZM43.394 14.142C43.394 14.982 43.2633 15.7147 43.002 16.34C42.7407 16.956 42.3673 17.474 41.882 17.894C41.406 18.3047 40.8273 18.6127 40.146 18.818C39.474 19.014 38.7273 19.112 37.906 19.112C37.514 19.112 37.0707 19.0933 36.576 19.056C36.0813 19.028 35.61 18.9627 35.162 18.86V9.438C35.61 9.33533 36.086 9.27 36.59 9.242C37.094 9.214 37.542 9.2 37.934 9.2C38.746 9.2 39.488 9.298 40.16 9.494C40.832 9.68067 41.406 9.97933 41.882 10.39C42.3673 10.7913 42.7407 11.3047 43.002 11.93C43.2633 12.546 43.394 13.2833 43.394 14.142ZM44.8302 15.374C44.8302 14.73 44.9235 14.1653 45.1102 13.68C45.3062 13.1947 45.5629 12.7933 45.8802 12.476C46.1975 12.1493 46.5615 11.9067 46.9722 11.748C47.3829 11.58 47.8029 11.496 48.2322 11.496C49.2402 11.496 50.0242 11.8087 50.5842 12.434C51.1535 13.0593 51.4382 13.9927 51.4382 15.234C51.4382 15.3273 51.4335 15.4347 51.4242 15.556C51.4242 15.668 51.4195 15.7707 51.4102 15.864H46.5802C46.6269 16.452 46.8322 16.9093 47.1962 17.236C47.5695 17.5533 48.1062 17.712 48.8062 17.712C49.2169 17.712 49.5902 17.6747 49.9262 17.6C50.2715 17.5253 50.5422 17.446 50.7382 17.362L50.9622 18.748C50.8689 18.7947 50.7382 18.846 50.5702 18.902C50.4115 18.9487 50.2249 18.9907 50.0102 19.028C49.8049 19.0747 49.5809 19.112 49.3382 19.14C49.0955 19.168 48.8482 19.182 48.5962 19.182C47.9522 19.182 47.3922 19.0887 46.9162 18.902C46.4402 18.706 46.0482 18.44 45.7402 18.104C45.4322 17.7587 45.2035 17.3573 45.0542 16.9C44.9049 16.4333 44.8302 15.9247 44.8302 15.374ZM49.7442 14.618C49.7442 14.3847 49.7115 14.1653 49.6462 13.96C49.5809 13.7453 49.4829 13.5633 49.3522 13.414C49.2309 13.2553 49.0769 13.134 48.8902 13.05C48.7129 12.9567 48.4982 12.91 48.2462 12.91C47.9849 12.91 47.7562 12.9613 47.5602 13.064C47.3642 13.1573 47.1962 13.2833 47.0562 13.442C46.9255 13.6007 46.8229 13.7827 46.7482 13.988C46.6735 14.1933 46.6222 14.4033 46.5942 14.618H49.7442ZM55.0683 17.782C55.5163 17.782 55.8429 17.7307 56.0483 17.628C56.2536 17.516 56.3563 17.3293 56.3563 17.068C56.3563 16.8253 56.2443 16.6247 56.0203 16.466C55.8056 16.3073 55.4463 16.1347 54.9423 15.948C54.6343 15.836 54.3496 15.7193 54.0883 15.598C53.8363 15.4673 53.6169 15.318 53.4303 15.15C53.2436 14.982 53.0943 14.7813 52.9823 14.548C52.8796 14.3053 52.8283 14.0113 52.8283 13.666C52.8283 12.994 53.0756 12.4667 53.5703 12.084C54.0649 11.692 54.7369 11.496 55.5863 11.496C56.0156 11.496 56.4263 11.538 56.8183 11.622C57.2103 11.6967 57.5043 11.7713 57.7003 11.846L57.3923 13.218C57.2056 13.134 56.9676 13.0593 56.6783 12.994C56.3889 12.9193 56.0529 12.882 55.6703 12.882C55.3249 12.882 55.0449 12.9427 54.8303 13.064C54.6156 13.176 54.5083 13.3533 54.5083 13.596C54.5083 13.7173 54.5269 13.8247 54.5643 13.918C54.6109 14.0113 54.6856 14.1 54.7883 14.184C54.8909 14.2587 55.0263 14.338 55.1943 14.422C55.3623 14.4967 55.5676 14.576 55.8103 14.66C56.2116 14.8093 56.5523 14.9587 56.8323 15.108C57.1123 15.248 57.3409 15.4113 57.5183 15.598C57.7049 15.7753 57.8403 15.9807 57.9243 16.214C58.0083 16.4473 58.0503 16.7273 58.0503 17.054C58.0503 17.754 57.7889 18.286 57.2663 18.65C56.7529 19.0047 56.0156 19.182 55.0543 19.182C54.4103 19.182 53.8923 19.126 53.5003 19.014C53.1083 18.9113 52.8329 18.8273 52.6743 18.762L52.9683 17.348C53.2203 17.4507 53.5189 17.5487 53.8643 17.642C54.2189 17.7353 54.6203 17.782 55.0683 17.782ZM61.3267 14.534C61.5414 14.31 61.77 14.072 62.0127 13.82C62.2554 13.5587 62.4934 13.302 62.7267 13.05C62.96 12.7887 63.1794 12.5413 63.3847 12.308C63.5994 12.0653 63.7814 11.8553 63.9307 11.678H65.9327C65.466 12.2007 64.9714 12.742 64.4487 13.302C63.9354 13.862 63.4174 14.408 62.8947 14.94C63.1747 15.1733 63.4687 15.458 63.7767 15.794C64.0847 16.1207 64.3834 16.4707 64.6727 16.844C64.962 17.2173 65.2327 17.5907 65.4847 17.964C65.7367 18.3373 65.9467 18.6827 66.1147 19H64.1547C63.9867 18.7107 63.7907 18.4073 63.5667 18.09C63.352 17.7727 63.1187 17.4647 62.8667 17.166C62.6147 16.8673 62.358 16.5873 62.0967 16.326C61.8354 16.0553 61.5787 15.8267 61.3267 15.64V19H59.6327V8.416L61.3267 8.136V14.534ZM67.2596 9.746L68.9536 9.466V11.678H71.5576V13.092H68.9536V16.074C68.9536 16.662 69.047 17.082 69.2336 17.334C69.4203 17.586 69.7376 17.712 70.1856 17.712C70.4936 17.712 70.7643 17.6793 70.9976 17.614C71.2403 17.5487 71.4316 17.488 71.5716 17.432L71.8516 18.776C71.6556 18.86 71.399 18.944 71.0816 19.028C70.7643 19.1213 70.391 19.168 69.9616 19.168C69.439 19.168 69.0003 19.098 68.6456 18.958C68.3003 18.818 68.025 18.6173 67.8196 18.356C67.6143 18.0853 67.4696 17.7633 67.3856 17.39C67.3016 17.0073 67.2596 16.5733 67.2596 16.088V9.746ZM79.6531 15.332C79.6531 15.9107 79.5691 16.438 79.4011 16.914C79.2331 17.39 78.9951 17.796 78.6871 18.132C78.3791 18.468 78.0058 18.7293 77.5671 18.916C77.1378 19.1027 76.6618 19.196 76.1391 19.196C75.6165 19.196 75.1405 19.1027 74.7111 18.916C74.2818 18.7293 73.9131 18.468 73.6051 18.132C73.2971 17.796 73.0545 17.39 72.8771 16.914C72.7091 16.438 72.6251 15.9107 72.6251 15.332C72.6251 14.7533 72.7091 14.2307 72.8771 13.764C73.0545 13.288 73.2971 12.882 73.6051 12.546C73.9225 12.21 74.2958 11.9533 74.7251 11.776C75.1545 11.5893 75.6258 11.496 76.1391 11.496C76.6525 11.496 77.1238 11.5893 77.5531 11.776C77.9918 11.9533 78.3651 12.21 78.6731 12.546C78.9811 12.882 79.2191 13.288 79.3871 13.764C79.5645 14.2307 79.6531 14.7533 79.6531 15.332ZM77.9171 15.332C77.9171 14.604 77.7585 14.03 77.4411 13.61C77.1331 13.1807 76.6991 12.966 76.1391 12.966C75.5791 12.966 75.1405 13.1807 74.8231 13.61C74.5151 14.03 74.3611 14.604 74.3611 15.332C74.3611 16.0693 74.5151 16.6527 74.8231 17.082C75.1405 17.5113 75.5791 17.726 76.1391 17.726C76.6991 17.726 77.1331 17.5113 77.4411 17.082C77.7585 16.6527 77.9171 16.0693 77.9171 15.332ZM86.2563 15.374C86.2563 14.618 86.0836 14.03 85.7383 13.61C85.4023 13.19 84.8563 12.98 84.1003 12.98C83.9416 12.98 83.7736 12.9893 83.5963 13.008C83.4283 13.0173 83.2603 13.0453 83.0923 13.092V17.278C83.2416 17.3807 83.4376 17.4787 83.6803 17.572C83.9323 17.656 84.1983 17.698 84.4783 17.698C85.0943 17.698 85.5423 17.488 85.8223 17.068C86.1116 16.648 86.2563 16.0833 86.2563 15.374ZM87.9923 15.346C87.9923 15.906 87.9176 16.4193 87.7683 16.886C87.6283 17.3527 87.423 17.754 87.1523 18.09C86.8816 18.426 86.541 18.6873 86.1303 18.874C85.729 19.0607 85.2716 19.154 84.7583 19.154C84.413 19.154 84.0956 19.112 83.8063 19.028C83.517 18.944 83.279 18.8507 83.0923 18.748V21.59H81.3983V11.916C81.7436 11.8227 82.1683 11.734 82.6723 11.65C83.1763 11.566 83.7083 11.524 84.2683 11.524C84.847 11.524 85.365 11.6127 85.8223 11.79C86.2796 11.9673 86.667 12.224 86.9843 12.56C87.311 12.8867 87.5583 13.288 87.7263 13.764C87.9036 14.2307 87.9923 14.758 87.9923 15.346ZM97.4017 19.21C96.6737 19.21 96.0204 19.098 95.4417 18.874C94.8631 18.65 94.3731 18.3233 93.9717 17.894C93.5704 17.4553 93.2624 16.9233 93.0477 16.298C92.8331 15.6727 92.7257 14.954 92.7257 14.142C92.7257 13.33 92.8471 12.6113 93.0897 11.986C93.3417 11.3607 93.6824 10.8333 94.1117 10.404C94.5411 9.96533 95.0451 9.634 95.6237 9.41C96.2024 9.186 96.8231 9.074 97.4857 9.074C97.8871 9.074 98.2511 9.10667 98.5777 9.172C98.9044 9.228 99.1891 9.29333 99.4317 9.368C99.6744 9.44267 99.8751 9.522 100.034 9.606C100.192 9.69 100.304 9.75067 100.37 9.788L99.8517 11.23C99.6277 11.09 99.3057 10.9593 98.8857 10.838C98.4751 10.7073 98.0271 10.642 97.5417 10.642C97.1217 10.642 96.7297 10.7167 96.3657 10.866C96.0017 11.006 95.6844 11.2207 95.4137 11.51C95.1524 11.7993 94.9471 12.1633 94.7977 12.602C94.6484 13.0407 94.5737 13.5493 94.5737 14.128C94.5737 14.6413 94.6297 15.1127 94.7417 15.542C94.8631 15.9713 95.0451 16.3447 95.2877 16.662C95.5304 16.97 95.8384 17.2127 96.2117 17.39C96.5851 17.558 97.0331 17.642 97.5557 17.642C98.1811 17.642 98.6897 17.5813 99.0817 17.46C99.4737 17.3293 99.7771 17.208 99.9917 17.096L100.468 18.538C100.356 18.6127 100.202 18.6873 100.006 18.762C99.8191 18.8367 99.5951 18.9113 99.3337 18.986C99.0724 19.0513 98.7784 19.1027 98.4517 19.14C98.1251 19.1867 97.7751 19.21 97.4017 19.21ZM101.933 19V8.416L103.627 8.136V11.762C103.814 11.6967 104.029 11.6407 104.271 11.594C104.523 11.5473 104.771 11.524 105.013 11.524C105.601 11.524 106.087 11.608 106.469 11.776C106.861 11.9347 107.174 12.1633 107.407 12.462C107.641 12.7513 107.804 13.1013 107.897 13.512C108 13.9227 108.051 14.38 108.051 14.884V19H106.357V15.15C106.357 14.758 106.329 14.4267 106.273 14.156C106.227 13.876 106.143 13.652 106.021 13.484C105.909 13.3067 105.755 13.1807 105.559 13.106C105.363 13.022 105.121 12.98 104.831 12.98C104.607 12.98 104.379 13.0033 104.145 13.05C103.912 13.0967 103.739 13.1387 103.627 13.176V19H101.933ZM112.658 17.81C113.181 17.81 113.577 17.782 113.848 17.726V15.85C113.755 15.822 113.619 15.794 113.442 15.766C113.265 15.738 113.069 15.724 112.854 15.724C112.667 15.724 112.476 15.738 112.28 15.766C112.093 15.794 111.921 15.8453 111.762 15.92C111.613 15.9947 111.491 16.102 111.398 16.242C111.305 16.3727 111.258 16.5407 111.258 16.746C111.258 17.1473 111.384 17.4273 111.636 17.586C111.888 17.7353 112.229 17.81 112.658 17.81ZM112.518 11.496C113.078 11.496 113.549 11.566 113.932 11.706C114.315 11.846 114.618 12.042 114.842 12.294C115.075 12.546 115.239 12.854 115.332 13.218C115.435 13.5727 115.486 13.9647 115.486 14.394V18.832C115.225 18.888 114.828 18.9533 114.296 19.028C113.773 19.112 113.181 19.154 112.518 19.154C112.079 19.154 111.678 19.112 111.314 19.028C110.95 18.944 110.637 18.8087 110.376 18.622C110.124 18.4353 109.923 18.1927 109.774 17.894C109.634 17.5953 109.564 17.2267 109.564 16.788C109.564 16.368 109.643 16.0133 109.802 15.724C109.97 15.4347 110.194 15.2013 110.474 15.024C110.754 14.8373 111.076 14.7067 111.44 14.632C111.813 14.548 112.201 14.506 112.602 14.506C112.789 14.506 112.985 14.52 113.19 14.548C113.395 14.5667 113.615 14.604 113.848 14.66V14.38C113.848 14.184 113.825 13.9973 113.778 13.82C113.731 13.6427 113.647 13.4887 113.526 13.358C113.414 13.218 113.26 13.1107 113.064 13.036C112.877 12.9613 112.639 12.924 112.35 12.924C111.958 12.924 111.599 12.952 111.272 13.008C110.945 13.064 110.679 13.1293 110.474 13.204L110.264 11.832C110.479 11.7573 110.791 11.6827 111.202 11.608C111.613 11.5333 112.051 11.496 112.518 11.496ZM117.476 9.746L119.17 9.466V11.678H121.774V13.092H119.17V16.074C119.17 16.662 119.264 17.082 119.45 17.334C119.637 17.586 119.954 17.712 120.402 17.712C120.71 17.712 120.981 17.6793 121.214 17.614C121.457 17.5487 121.648 17.488 121.788 17.432L122.068 18.776C121.872 18.86 121.616 18.944 121.298 19.028C120.981 19.1213 120.608 19.168 120.178 19.168C119.656 19.168 119.217 19.098 118.862 18.958C118.517 18.818 118.242 18.6173 118.036 18.356C117.831 18.0853 117.686 17.7633 117.602 17.39C117.518 17.0073 117.476 16.5733 117.476 16.088V9.746Z" fill="white"/>
<path d="M19.4992 3.00012H8.49921C5.46321 3.00012 2.99921 5.45312 2.99921 8.47812V15.0561V16.1561C2.99921 19.1811 5.46321 21.6341 8.49921 21.6341H10.1492C10.4462 21.6341 10.8422 21.8321 11.0292 22.0741L12.6792 24.2631C13.4052 25.2311 14.5932 25.2311 15.3192 24.2631L16.9692 22.0741C17.1782 21.7991 17.5082 21.6341 17.8492 21.6341H19.4992C22.5352 21.6341 24.9992 19.1811 24.9992 16.1561V8.47812C24.9992 5.45312 22.5352 3.00012 19.4992 3.00012ZM9.59921 14.0001C8.98321 14.0001 8.49921 13.5051 8.49921 12.9001C8.49921 12.2951 8.99421 11.8001 9.59921 11.8001C10.2042 11.8001 10.6992 12.2951 10.6992 12.9001C10.6992 13.5051 10.2152 14.0001 9.59921 14.0001ZM13.9992 14.0001C13.3832 14.0001 12.8992 13.5051 12.8992 12.9001C12.8992 12.2951 13.3942 11.8001 13.9992 11.8001C14.6042 11.8001 15.0992 12.2951 15.0992 12.9001C15.0992 13.5051 14.6152 14.0001 13.9992 14.0001ZM18.3992 14.0001C17.7832 14.0001 17.2992 13.5051 17.2992 12.9001C17.2992 12.2951 17.7942 11.8001 18.3992 11.8001C19.0042 11.8001 19.4992 12.2951 19.4992 12.9001C19.4992 13.5051 19.0152 14.0001 18.3992 14.0001Z" fill="white"/>
</svg>
