<svg width="154" height="83" viewBox="0 0 154 83" fill="none" xmlns="http://www.w3.org/2000/svg">
<g opacity="0.2" clip-path="url(#clip0_38_1890)">
<path d="M6.54393 30.4491C6.54393 30.4491 18.2337 59.8292 39.8638 63.4016C61.4938 66.974 61.7544 42.5318 57.8198 31.8932C53.8851 21.2547 37.7553 23.7956 39.6954 39.8866C41.6355 55.9776 89.9022 47.6169 89.9022 47.6169" stroke="#1C242C" stroke-width="4" stroke-linecap="round" stroke-dasharray="6 10"/>
<path d="M99.3738 45.2478L121.651 38.56" stroke="#1C242C" stroke-width="4" stroke-linecap="round" stroke-dasharray="6 10"/>
<path d="M152.286 23.7254C152.044 23.2796 151.682 22.905 151.239 22.6418C150.796 22.3786 150.289 22.2369 149.771 22.2318L125.105 21.8892C124.569 21.8737 124.042 22.0061 123.584 22.271C123.126 22.5359 122.756 22.9224 122.518 23.3854C122.29 23.9262 122.219 24.5188 122.313 25.0989C122.408 25.679 122.664 26.2245 123.054 26.6765L128.865 32.9977C129.154 33.3126 129.544 33.5244 129.971 33.5986C130.398 33.6728 130.837 33.6051 131.217 33.4064L141.77 27.9035C141.896 27.8345 142.036 27.7911 142.181 27.7761C142.326 27.7611 142.473 27.7747 142.613 27.8162C142.753 27.8576 142.883 27.926 142.995 28.0172C143.107 28.1084 143.2 28.2206 143.267 28.3469C143.404 28.5997 143.434 28.8936 143.351 29.1657C143.268 29.4377 143.078 29.6663 142.821 29.8025L132.255 35.3026C131.874 35.5015 131.573 35.8191 131.402 36.2047C131.23 36.5904 131.197 37.022 131.307 37.4307L133.524 45.6518C133.642 46.1176 133.884 46.5463 134.226 46.8947C134.568 47.2431 134.998 47.4989 135.472 47.6365C135.589 47.6735 135.708 47.7038 135.829 47.727C136.382 47.8204 136.949 47.7552 137.461 47.5394C137.972 47.3237 138.406 46.9668 138.709 46.5127L152.152 26.5768C152.436 26.1592 152.598 25.6742 152.622 25.1726C152.645 24.6709 152.529 24.1711 152.286 23.7254Z" fill="#1C242C"/>
</g>
<defs>
<clipPath id="clip0_38_1890">
<rect width="145.964" height="60.517" fill="white" transform="translate(9.209) rotate(8.75306)"/>
</clipPath>
</defs>
</svg>
