<svg width="120" height="37" viewBox="0 0 120 37" fill="none" xmlns="http://www.w3.org/2000/svg">
<path fill-rule="evenodd" clip-rule="evenodd" d="M25.2922 30.413C23.2753 31.5857 20.9342 32.2564 18.4399 32.2564C10.8902 32.2564 4.74359 26.112 4.74359 18.5C4.74359 10.888 10.8902 4.74359 18.4399 4.74359C25.9895 4.74359 32.1361 10.888 32.1361 18.5C32.1361 21.3597 31.2686 24.0122 29.7851 26.2097L29.8201 26.177C29.8054 26.192 29.7909 26.2071 29.7767 26.2222C29.6159 26.4598 29.448 26.692 29.2731 26.9186C28.6263 28.1469 29.0377 29.5444 29.9767 30.6436C28.0205 29.2826 27.1398 29.2205 25.2486 30.4539L25.2922 30.413ZM36.8797 18.5C36.8797 28.7173 28.6239 37 18.4399 37C8.25581 37 0 28.7173 0 18.5C0 8.28273 8.25581 0 18.4399 0C28.6239 0 36.8797 8.28273 36.8797 18.5Z" fill="#0D1883"/>
<path d="M23.5854 15.9745C22.0732 16.3801 21.0288 17.5982 20.4515 18.5857C20.1526 19.097 20.3562 19.7293 20.8832 19.9989C21.966 20.5527 23.5535 21.1013 24.8637 20.7499C26.19 20.3942 27.2519 19.1109 27.8678 18.0945C28.1575 17.6163 28.0283 17.0067 27.5525 16.7135C26.602 16.1279 25.1174 15.5636 23.5854 15.9745Z" fill="#0D1883"/>
<path d="M13.4224 16.0087C11.9102 15.6031 10.3973 16.1352 9.40405 16.7015C8.88983 16.9947 8.7503 17.6442 9.07205 18.1414C9.73314 19.163 10.8339 20.4327 12.1441 20.7841C13.4704 21.1398 15.0311 20.5599 16.0721 19.988C16.5619 19.7189 16.7545 19.1262 16.4889 18.6342C15.9582 17.6513 14.9543 16.4196 13.4224 16.0087Z" fill="#0D1883"/>
<path d="M84.6121 9.42236H79.7515L74.9639 27.4184H79.8243L84.6121 9.42236Z" fill="#0D1883"/>
<path d="M41.0771 27.4184H45.9377L47.3385 22.1565H50.191C54.8364 22.1565 58.0431 18.981 58.8937 15.7767C59.7412 12.6012 58.2486 9.42236 53.5494 9.42236H45.865L41.0771 27.4184ZM48.4137 18.1146L49.5965 13.6682H52.4205C55.3615 13.6427 54.1629 18.1401 51.2377 18.1146H48.4137Z" fill="#0D1883"/>
<path d="M67.6755 27.4152H73.7313L70.1325 21.2393C72.6497 20.5513 74.5915 18.672 75.477 15.3436C76.4921 11.1233 73.8735 9.42236 69.908 9.42236H62.2204L57.4326 27.4184H62.35L64.1589 20.6118L67.6722 27.4184L67.6755 27.4152ZM64.9146 17.7833L66.0089 13.665H68.8614C71.9288 13.665 70.8346 17.7833 67.764 17.7833H64.9146Z" fill="#0D1883"/>
<path d="M111 27.4152H117.056L113.457 21.2393C115.974 20.5513 117.916 18.672 118.801 15.3436C119.816 11.1233 117.198 9.42236 113.232 9.42236H105.545L100.757 27.4184H105.674L107.483 20.6118L110.997 27.4184L111 27.4152ZM108.239 17.7833L109.333 13.665H112.186C115.253 13.665 114.159 17.7833 111.088 17.7833H108.239Z" fill="#0D1883"/>
<path d="M92.106 20.6373L91.0308 9.42236H85.8162L87.9539 27.4152H92.4097L104.12 9.42236H98.905L92.1029 20.6373H92.106Z" fill="#0D1883"/>
</svg>
