<svg width="143" height="130" viewBox="0 0 143 130" fill="none" xmlns="http://www.w3.org/2000/svg">
<path d="M128.101 4.5445C124.349 9.51435 114.575 19.7705 105.504 21.0362C94.1642 22.6184 89.2857 9.96045 77.9463 11.5426C66.6069 13.1248 67.5602 26.3305 54.4763 28.1561C41.3924 29.9817 41.7474 16.5935 27.3551 18.6016C12.9627 20.6098 20.0219 32.9635 6.06572 34.9108" stroke="#AAE9FF" stroke-width="8" stroke-linecap="round"/>
<path d="M131.147 34.911C127.394 39.8808 117.62 50.1369 108.549 51.4027C97.2094 52.9849 92.3308 40.3269 80.9914 41.9091C69.652 43.4913 70.6054 56.6969 57.5214 58.5225C44.4375 60.3481 44.7925 46.9599 30.4002 48.9681C16.0079 50.9762 23.067 63.3299 9.11084 65.2772" stroke="#AAE9FF" stroke-width="8" stroke-linecap="round"/>
<path d="M134.186 65.2772C130.434 70.2471 120.66 80.5032 111.589 81.769C100.249 83.3511 95.3708 70.6932 84.0314 72.2754C72.692 73.8575 73.6453 87.0632 60.5614 88.8888C47.4774 90.7144 47.8325 77.3262 33.4402 79.3343C19.0478 81.3425 26.107 93.6962 12.1508 95.6435" stroke="#AAE9FF" stroke-width="8" stroke-linecap="round"/>
<path d="M137.228 95.6433C133.476 100.613 123.702 110.869 114.631 112.135C103.291 113.717 98.4128 101.059 87.0734 102.641C75.7339 104.224 76.6873 117.429 63.6033 119.255C50.5194 121.08 50.8745 107.692 36.4821 109.7C22.0898 111.709 29.149 124.062 15.1928 126.01" stroke="#AAE9FF" stroke-width="8" stroke-linecap="round"/>
</svg>
