<svg width="32" height="31" viewBox="0 0 32 31" fill="none" xmlns="http://www.w3.org/2000/svg">
<path opacity="0.56" d="M15.6453 30.576C12.0305 28.3432 8.67016 25.7105 5.62582 22.726C3.47664 20.5951 1.83528 17.9932 0.827179 15.1192C-0.974072 9.51412 1.1227 3.10834 6.97676 1.20663C10.0667 0.236258 13.4272 0.831945 16.0112 2.80807V2.80807C18.5961 0.834155 21.9555 0.238661 25.0456 1.20663C30.8996 3.10834 33.0105 9.51412 31.2092 15.1192C30.2093 17.9905 28.5777 20.5922 26.4387 22.726C23.3916 25.7073 20.0317 28.3397 16.4193 30.576L16.0252 30.8333L15.6453 30.576Z" fill="white"/>
<path d="M16.0173 30.8333L15.6454 30.5759C12.0261 28.3434 8.66113 25.7107 5.61186 22.726C3.45248 20.5981 1.80136 17.9959 0.78507 15.1192C-1.00211 9.5141 1.09466 3.10833 6.94873 1.20661C10.0386 0.236241 13.4434 0.832384 16.0173 2.82506V30.8333Z" fill="white"/>
<path d="M25.865 11.8321V11.8321C25.547 11.8116 25.2508 11.6527 25.0458 11.3925C24.8409 11.1323 24.7452 10.7937 24.7812 10.4561V10.4561C24.8156 9.34402 24.1829 8.3318 23.2071 7.93797C22.5883 7.76906 22.2136 7.09895 22.3684 6.4381C22.5153 5.78788 23.1241 5.38358 23.7361 5.52993C23.8133 5.54275 23.8877 5.57074 23.9554 5.61249C25.912 6.36542 27.1787 8.39181 27.0779 10.6074C27.0747 10.9433 26.9438 11.2633 26.7151 11.4942C26.4864 11.7251 26.1796 11.847 25.865 11.8321Z" fill="white"/>
</svg>
