<svg width="213" height="213" viewBox="0 0 213 213" fill="none" xmlns="http://www.w3.org/2000/svg">
<g opacity="0.03">
<path opacity="0.56" d="M86.2419 174.454C72.9433 160.341 61.2393 144.765 51.3437 128.012C44.3861 116.079 40.2237 102.669 39.1745 88.8081C37.8547 61.9704 54.6652 36.2072 82.7193 34.7386C97.4874 34.1107 111.599 40.7064 120.656 52.4706C134.383 46.822 149.897 48.1651 162.376 56.0826C185.937 71.3815 187.676 102.115 173.114 124.697C165.314 136.174 155.048 145.717 143.098 152.597C126.143 162.14 108.221 169.776 89.654 175.368L87.6129 176.037L86.2419 174.454Z" fill="url(#paint0_linear_67_593)"/>
<path d="M87.5776 176.028L86.2418 174.454C72.9234 160.336 61.1986 144.755 51.2816 127.995C44.2756 116.063 40.0704 102.641 38.9883 88.7582C37.7305 61.9371 54.541 36.174 82.5952 34.7054C97.3633 34.0775 111.669 40.7276 120.663 52.5527L87.5776 176.028Z" fill="url(#paint1_linear_67_593)"/>
<path d="M153.436 103.893C152.058 103.427 150.94 102.376 150.344 100.987C149.748 99.5981 149.726 97.9925 150.283 96.5465C151.749 91.6846 150.155 86.4748 146.318 83.5859C143.79 82.1103 142.93 78.7135 144.393 75.983C145.808 73.29 148.97 72.2268 151.495 73.5949C151.821 73.7427 152.115 73.954 152.365 74.218C160.101 79.8484 163.291 90.2782 160.23 99.9268C159.819 101.403 158.864 102.66 157.583 103.407C156.302 104.155 154.805 104.331 153.436 103.893Z" fill="url(#paint2_linear_67_593)"/>
</g>
<defs>
<linearGradient id="paint0_linear_67_593" x1="123.114" y1="43.4047" x2="87.5776" y2="176.028" gradientUnits="userSpaceOnUse">
<stop/>
<stop offset="1" stop-opacity="0"/>
</linearGradient>
<linearGradient id="paint1_linear_67_593" x1="88.1742" y1="34.0457" x2="69.999" y2="141.5" gradientUnits="userSpaceOnUse">
<stop/>
<stop offset="1" stop-opacity="0"/>
</linearGradient>
<linearGradient id="paint2_linear_67_593" x1="155.817" y1="74.6116" x2="148.336" y2="102.532" gradientUnits="userSpaceOnUse">
<stop/>
<stop offset="1" stop-opacity="0"/>
</linearGradient>
</defs>
</svg>
