<svg width="32" height="32" viewBox="0 0 32 32" fill="none" xmlns="http://www.w3.org/2000/svg">
<path d="M30.9267 1.08233C30.135 0.273243 28.9634 -0.0260069 27.8709 0.29066L2.39504 7.65158C1.24237 7.97141 0.425375 8.88499 0.205291 10.044C-0.0195421 11.2252 0.765791 12.7262 1.79179 13.3532L9.75754 18.2172C10.5745 18.7175 11.629 18.5924 12.3051 17.9147L21.4267 8.79316C21.8859 8.31658 22.6459 8.31658 23.105 8.79316C23.5642 9.25074 23.5642 9.99649 23.105 10.4715L13.9676 19.5931C13.29 20.2707 13.1633 21.3221 13.662 22.1407L18.5292 30.1365C19.0992 31.0849 20.0809 31.6248 21.1575 31.6248C21.2842 31.6248 21.4267 31.6248 21.5534 31.6074C22.7884 31.4507 23.77 30.6099 24.1342 29.4224L31.6867 4.13816C32.0192 3.06149 31.7184 1.88983 30.9267 1.08233Z" fill="white"/>
<path opacity="0.4" fill-rule="evenodd" clip-rule="evenodd" d="M1.76657 23.6124C1.46257 23.6124 1.15857 23.4968 0.927405 23.264C0.463489 22.8001 0.463489 22.0496 0.927405 21.5857L3.08866 19.4229C3.55257 18.9605 4.30466 18.9605 4.76857 19.4229C5.23091 19.8868 5.23091 20.6389 4.76857 21.1028L2.60574 23.264C2.37457 23.4968 2.07057 23.6124 1.76657 23.6124ZM7.72181 25.5003C7.4178 25.5003 7.1138 25.3847 6.88264 25.152C6.41872 24.6881 6.41872 23.9376 6.88264 23.4737L9.04389 21.3108C9.5078 20.8485 10.2599 20.8485 10.7238 21.3108C11.1861 21.7747 11.1861 22.5268 10.7238 22.9907L8.56097 25.152C8.3298 25.3847 8.02581 25.5003 7.72181 25.5003ZM8.1235 31.1497C8.35466 31.3824 8.65866 31.498 8.96266 31.498C9.26666 31.498 9.57066 31.3824 9.80183 31.1497L11.9647 28.9884C12.427 28.5245 12.427 27.7724 11.9647 27.3085C11.5007 26.8462 10.7487 26.8462 10.2847 27.3085L8.1235 29.4713C7.65958 29.9352 7.65958 30.6857 8.1235 31.1497Z" fill="white"/>
</svg>
