<svg width="174" height="174" viewBox="0 0 174 174" fill="none" xmlns="http://www.w3.org/2000/svg">
<g opacity="0.03">
<path d="M155.349 18.6927C151.724 14.9879 146.359 13.6177 141.356 15.0677L24.7038 48.7729C19.4258 50.2374 15.6848 54.4207 14.677 59.7277C13.6475 65.1362 17.2435 72.0092 21.9415 74.8802L58.4163 97.1522C62.1573 99.4432 66.9858 98.8704 70.0815 95.7674L111.849 54.0002C113.951 51.8179 117.431 51.8179 119.534 54.0002C121.636 56.0954 121.636 59.5102 119.534 61.6852L77.694 103.452C74.591 106.555 74.011 111.369 76.2948 115.118L98.5813 151.73C101.191 156.073 105.686 158.545 110.616 158.545C111.196 158.545 111.849 158.545 112.429 158.465C118.084 157.748 122.579 153.898 124.246 148.46L158.829 32.6852C160.351 27.7552 158.974 22.3902 155.349 18.6927Z" fill="url(#paint0_linear_67_512)"/>
<path opacity="0.4" fill-rule="evenodd" clip-rule="evenodd" d="M21.8263 121.857C20.4343 121.857 19.0423 121.327 17.9838 120.262C15.8596 118.137 15.8596 114.701 17.9838 112.577L27.8801 102.673C30.0043 100.556 33.4481 100.556 35.5723 102.673C37.6893 104.797 37.6893 108.241 35.5723 110.365L25.6688 120.262C24.6103 121.327 23.2183 121.857 21.8263 121.857ZM49.095 130.501C47.703 130.501 46.311 129.972 45.2525 128.906C43.1283 126.782 43.1283 123.346 45.2525 121.221L55.1488 111.318C57.273 109.201 60.7168 109.201 62.841 111.318C64.958 113.442 64.958 116.886 62.841 119.01L52.9375 128.906C51.879 129.972 50.487 130.501 49.095 130.501ZM50.9343 156.369C51.9928 157.435 53.3848 157.964 54.7768 157.964C56.1688 157.964 57.5608 157.435 58.6193 156.369L68.5228 146.473C70.6398 144.349 70.6398 140.905 68.5228 138.781C66.3986 136.664 62.9548 136.664 60.8306 138.781L50.9343 148.684C48.8101 150.809 48.8101 154.245 50.9343 156.369Z" fill="url(#paint1_linear_67_512)"/>
</g>
<defs>
<linearGradient id="paint0_linear_67_512" x1="148.814" y1="13.7376" x2="96.1564" y2="137.369" gradientUnits="userSpaceOnUse">
<stop/>
<stop offset="1" stop-opacity="0"/>
</linearGradient>
<linearGradient id="paint1_linear_67_512" x1="43.2506" y1="101.085" x2="43.2506" y2="157.964" gradientUnits="userSpaceOnUse">
<stop/>
<stop offset="1" stop-opacity="0"/>
</linearGradient>
</defs>
</svg>
